<svg id="Group_9967" data-name="Group 9967" xmlns="http://www.w3.org/2000/svg" width="37.427" height="14.856" viewBox="0 0 37.427 14.856">
  <path id="Path_40414" data-name="Path 40414" d="M79.9,12.2c.214-.463.431-.926.645-1.389.345-.748.687-1.492,1.036-2.24a.181.181,0,0,0,0-.16Q80.1,5.046,78.617,1.688L78.581,1.6h1.432a.089.089,0,0,1,.1.061q1.063,2.575,2.133,5.149l.025.053c.014.028.032.028.046,0l.021-.046Q83.371,4.247,84.4,1.681a.111.111,0,0,1,.125-.082c.442,0,.883,0,1.325,0h.089c-.075.171-.146.335-.217.5Q83.54,7.122,81.351,12.147l-.018.053Z" transform="translate(-48.514 2.656)" fill="#5f6368"/>
  <path id="Path_40415" data-name="Path 40415" d="M81.656,3.082a2.972,2.972,0,0,0-.915-1.524,3.229,3.229,0,0,0-2.251-.9c-1.229-.018-2.454,0-3.682-.018-.071,0-.089.036-.089.1V11.315c0,.068.018.085.089.085h1.211c.068,0,.085-.018.085-.085V7.145c0-.1-.018-.1.1-.1.762,0,1.538.018,2.318,0a3.265,3.265,0,0,0,2.2-.865,3.037,3.037,0,0,0,.933-3.094M79.857,5.1a1.817,1.817,0,0,1-1.107.605,1.26,1.26,0,0,1-.26.018h-2.3c-.068,0-.085-.018-.085-.071V2.042c0-.05.018-.068.068-.068H78.49a1.651,1.651,0,0,1,1.125.413A1.871,1.871,0,0,1,80.324,3.6,1.791,1.791,0,0,1,79.857,5.1" transform="translate(-58.403 0.207)" fill="#5f6368"/>
  <path id="Path_40416" data-name="Path 40416" d="M83.145,3.871a2.684,2.684,0,0,0-1.766-2.094,4.372,4.372,0,0,0-2.439-.139A3.246,3.246,0,0,0,76.97,2.92c-.018.036-.036.053.018.085.363.242.741.466,1.1.709.053.018.071.018.089-.014a3.912,3.912,0,0,1,.26-.313A2.128,2.128,0,0,1,80.378,2.8a1.867,1.867,0,0,1,1.314.915,1.968,1.968,0,0,1,.189,1.09c-.068-.032-.139-.068-.207-.1a4.277,4.277,0,0,0-1.659-.345,4.765,4.765,0,0,0-1.7.26,2.616,2.616,0,0,0-1.161.812A2.3,2.3,0,0,0,76.778,7.5,2.4,2.4,0,0,0,78.213,9.1a3.16,3.16,0,0,0,1.246.278,2.625,2.625,0,0,0,1.3-.278,2.982,2.982,0,0,0,1.04-.933c.018-.036.036-.053.068-.053.036.018.018.053.018.071v.862c0,.071.018.089.085.089h1.161c.068,0,.085-.018.085-.089V4.669a4.181,4.181,0,0,0-.068-.8M81.293,7.4a2.091,2.091,0,0,1-1.211.691,1.721,1.721,0,0,1-1.521-.328,1.125,1.125,0,0,1-.157-1.642,1.923,1.923,0,0,1,1.107-.605,3.533,3.533,0,0,1,.57-.053,3.939,3.939,0,0,1,1.314.224,2.339,2.339,0,0,1,.449.26.062.062,0,0,1,.036.085A1.941,1.941,0,0,1,81.293,7.4" transform="translate(-53.37 2.477)" fill="#5f6368"/>
  <path id="Path_40417" data-name="Path 40417" d="M70.323,3.812a5.979,5.979,0,0,1,.887-1.318A6.189,6.189,0,0,1,75.5.414,6.053,6.053,0,0,1,78.285.9,5.929,5.929,0,0,1,79.93,1.971c.046.039.039.057,0,.093-.552.552-1.107,1.1-1.659,1.659-.043.043-.064.05-.114.007a3.192,3.192,0,0,0-1.816-.848,3.564,3.564,0,0,0-3.208,1.211,3.689,3.689,0,0,0-.758,1.3c-.039.007-.061-.021-.085-.039q-.652-.507-1.31-1.015c-.2-.157-.406-.31-.605-.47-.021-.018-.046-.032-.05-.061" transform="translate(-69.663 -0.404)" fill="#e94335"/>
  <path id="Path_40418" data-name="Path 40418" d="M72.371,2.474a4.545,4.545,0,0,0,.335.719,3.59,3.59,0,0,0,2.571,1.773,3.692,3.692,0,0,0,2.646-.523l.025-.011c.039-.007.064.021.089.039.609.477,1.221.947,1.83,1.421.029.021.064.036.068.078a4.721,4.721,0,0,1-.855.645,5.8,5.8,0,0,1-2.233.776,6.557,6.557,0,0,1-1.471.053,6.042,6.042,0,0,1-2.354-.666,6.148,6.148,0,0,1-2.689-2.7l-.011-.025c0-.032.029-.046.05-.061.641-.5,1.282-.994,1.919-1.492.025-.014.043-.039.078-.032" transform="translate(-69.663 4.893)" fill="#34a753"/>
  <path id="Path_40419" data-name="Path 40419" d="M75.967,7.629,74.65,6.6c-.224-.171-.445-.342-.669-.516a2.968,2.968,0,0,0,.791-.787A2.9,2.9,0,0,0,75.2,4.275c.014-.061-.007-.068-.061-.068H71.972c-.11,0-.1.018-.1-.1,0-.726,0-1.456,0-2.183,0-.071.011-.1.093-.1q2.826.005,5.651,0c.071,0,.1.021.107.089a7.893,7.893,0,0,1,.046,1.966,6.326,6.326,0,0,1-.68,2.293,5.411,5.411,0,0,1-1.1,1.439l-.025.018" transform="translate(-65.696 3.235)" fill="#4284f3"/>
  <path id="Path_40420" data-name="Path 40420" d="M72.846,5.321,71.525,6.343c-.242.185-.484.374-.726.563a5.845,5.845,0,0,1-.47-1.253,6.157,6.157,0,0,1,.459-4.273l.011-.018,1.973,1.528c.025.021.05.036.078.057a4.4,4.4,0,0,0-.171.773,3.705,3.705,0,0,0,.146,1.517l.021.085" transform="translate(-70.137 2.046)" fill="#fabb04"/>
</svg>
