<svg id="Group_9969" data-name="Group 9969" xmlns="http://www.w3.org/2000/svg" width="35.224" height="11.002" viewBox="0 0 35.224 11.002">
  <path id="Path_40421" data-name="Path 40421" d="M106.087,10.178l-.014,0-.011-.007V1.511h.029c.071.078.05.174.05.267V9.929c0,.085.021.178-.053.249" transform="translate(-106.062 0.503)" fill="#7c85a3"/>
  <path id="Path_40422" data-name="Path 40422" d="M115.535,1.974a2.38,2.38,0,0,1,3.141.071c.075.064.11.071.189,0a2.29,2.29,0,0,1,1.563-.627,2.331,2.331,0,0,1,2.364,1.98,3.374,3.374,0,0,1,.025.424v6.42c0,.313-.128.442-.438.442h-1.4c-.3,0-.427-.132-.427-.431q-.005-2.954,0-5.908a.573.573,0,0,0-.321-.595.843.843,0,0,0-.83.053.631.631,0,0,0-.231.577v5.95a.332.332,0,0,1-.349.37c-.513.011-1.026.011-1.535,0-.253,0-.37-.146-.37-.4q0-2.975,0-5.947a.572.572,0,0,0-.424-.63,1.114,1.114,0,0,0-.541,0,.564.564,0,0,0-.417.588v5.979a.35.35,0,0,1-.4.4h-1.46a.345.345,0,0,1-.392-.388V1.87a.334.334,0,0,1,.377-.381c.488,0,.976,0,1.464,0,.288,0,.4.11.41.4l.011.089" transform="translate(-87.593 0.257)" fill="#54c0ef"/>
  <path id="Path_40423" data-name="Path 40423" d="M113.823,3.341a2.061,2.061,0,0,0-.623-1.31,2.382,2.382,0,0,0-1.62-.573c-.8-.014-1.606-.014-2.407-.014a.338.338,0,0,0-.377.377v1.31c0,.328.132.442.442.442h1.9a.368.368,0,0,1,.41.424c0,.313-.114.427-.41.445a10.1,10.1,0,0,0-1.229.014A2.144,2.144,0,0,0,107.876,6.6V8.455a2.2,2.2,0,0,0,.05.456,1.989,1.989,0,0,0,1.951,1.674c1.029.032,2.062.014,3.077,0a.863.863,0,0,0,.887-.919v-3c0-.705.014-1.407,0-2.112a9.824,9.824,0,0,0-.018-1.214m-2.243,4.85a.367.367,0,0,1-.36.377,5.3,5.3,0,0,1-.673,0,.35.35,0,0,1-.36-.377V6.913a.35.35,0,0,1,.36-.377c.231,0,.442,0,.673.018a.352.352,0,0,1,.36.36Z" transform="translate(-101.417 0.328)" fill="#233266"/>
  <path id="Path_40424" data-name="Path 40424" d="M115.713,5.137V8.274a2.313,2.313,0,0,1-.637,1.7,2.214,2.214,0,0,1-1.606.666c-.865.011-1.731,0-2.6,0a.346.346,0,0,1-.388-.381c0-.491,0-.983,0-1.474a.357.357,0,0,1,.409-.406c.723,0,1.446,0,2.169-.007a.366.366,0,0,0,.381-.5.36.36,0,0,0-.36-.231c-.356,0-.709,0-1.061-.007a2.213,2.213,0,0,1-2.236-2.226c-.007-1.2,0-2.4,0-3.593a.341.341,0,0,1,.374-.377c.495,0,.993,0,1.488,0a.352.352,0,0,1,.4.4c0,.531,0,1.061,0,1.592,0,.513,0,1.022,0,1.531a.367.367,0,0,0,.413.42c.185,0,.374,0,.559,0a.371.371,0,0,0,.417-.42V1.885c0-.328.114-.442.445-.442.459,0,.922,0,1.385,0,.317,0,.434.118.434.438V5.137" transform="translate(-96.531 0.324)" fill="#233266"/>
  <path id="Path_40425" data-name="Path 40425" d="M110.868,1.685a2.3,2.3,0,0,0-1.147-.246h-2.867c-.146,0-.3,0-.459.014a.318.318,0,0,0-.328.246l.018.018v.014c0,2.835,0,5.651-.018,8.486v.15a.345.345,0,0,0,.377.278h1.46c.292,0,.41-.132.41-.41.014-.737.014-1.46.014-2.179,0-.114.018-.146.132-.146.491.014.965.014,1.456,0a2.013,2.013,0,0,0,2.033-1.983c.014-.851.032-1.7,0-2.539a1.9,1.9,0,0,0-1.083-1.7m-1.179,3.586a.357.357,0,0,1-.392.377h-.855c-.1,0-.114-.032-.114-.132V3.828c0-.082,0-.114.1-.114h.869a.36.36,0,0,1,.392.392Z" transform="translate(-106.046 0.318)" fill="#233266"/>
  <path id="Path_40426" data-name="Path 40426" d="M113,8.34c0-1.068,0-2.14,0-3.208,0-.142-.043-.174-.175-.167-.246.007-.491,0-.737,0a.342.342,0,0,1-.388-.388V3.1c0-.264.125-.377.392-.385a2.242,2.242,0,0,0,1.328-.406,3.045,3.045,0,0,0,.588-.659,2.2,2.2,0,0,1,.463-.531,1.171,1.171,0,0,1,.271-.146.323.323,0,0,1,.47.32c0,.424.007.844,0,1.268,0,.121.032.16.153.157.242-.011.484-.007.726,0a.336.336,0,0,1,.363.356c0,.509,0,1.018,0,1.531a.342.342,0,0,1-.377.36c-.231,0-.463.007-.691,0-.128,0-.167.028-.167.164.007,1.179,0,2.354,0,3.532v2.874c0,.306-.11.417-.417.417h-1.4c-.3,0-.406-.114-.406-.413Z" transform="translate(-91.626 -0.945)" fill="#54c0ef"/>
</svg>
