<svg id="Group_9965" data-name="Group 9965" xmlns="http://www.w3.org/2000/svg" width="41.562" height="10.735" viewBox="0 0 41.562 10.735">
  <path id="Path_40404" data-name="Path 40404" d="M39.782,9.145c-.26-.007-.595,0-.926-.032-.146-.018-.178-.057-.182-.21a3.7,3.7,0,0,1,.135-.837,7.594,7.594,0,0,0,.171-.937.667.667,0,0,0-.58-.776A6.674,6.674,0,0,0,37.122,6.3a.346.346,0,0,0-.3.235,5.752,5.752,0,0,0-.292.865c-.15.545-.3,1.086-.442,1.634-.021.093-.061.118-.153.118-.6,0-1.2,0-1.805-.021-.2-.011-.21-.014-.167-.2.167-.758.377-1.5.588-2.251.516-1.852,1.04-3.7,1.556-5.555.032-.107.071-.139.182-.135,1.132.025,2.261.043,3.39.071a8.51,8.51,0,0,1,1.506.118,1.575,1.575,0,0,1,.762.388,1.175,1.175,0,0,1,.377,1.026,3.166,3.166,0,0,1-1.367,2.432,3.47,3.47,0,0,0-.285.228c-.135.125-.135.167-.018.3a.993.993,0,0,0,.171.174,1.04,1.04,0,0,1,.356,1.061c-.057.438-.16.862-.221,1.3a8.319,8.319,0,0,0-.085.937c0,.11-.039.135-.142.132-.292-.007-.584,0-.951,0m-.94-6.3c-.281.014-.612.028-.94.046-.053,0-.1,0-.121.075a11.011,11.011,0,0,0-.328,1.31c-.043.278.014.345.3.36l.036,0a8.107,8.107,0,0,0,1.41-.078.9.9,0,0,0,.837-.748,1.891,1.891,0,0,0,.028-.449.418.418,0,0,0-.377-.459,3.77,3.77,0,0,0-.848-.061" transform="translate(-33.942 -0.983)" fill="#37398b"/>
  <path id="Path_40405" data-name="Path 40405" d="M42.29,1c.723.025,1.442.025,2.162.075a2.781,2.781,0,0,1,1.093.26,1.525,1.525,0,0,1,.833,1.214,2.88,2.88,0,0,1-.189,1.375,4.283,4.283,0,0,1-.869,1.538,3.032,3.032,0,0,1-2.008,1.011c-.648.061-1.3.078-1.944.139l-.014,0c-.37.021-.4.036-.5.385-.2.666-.388,1.335-.577,2-.025.089-.057.125-.153.121-.6,0-1.2,0-1.795-.021-.221-.011-.228-.014-.178-.228.2-.9.452-1.78.7-2.664q.7-2.537,1.4-5.067c.028-.11.071-.146.185-.146.62.007,1.239,0,1.855,0m-.064,3.8a7.322,7.322,0,0,0,.872-.064,1.113,1.113,0,0,0,.887-.548,1.73,1.73,0,0,0,.189-.538.666.666,0,0,0-.085-.548.634.634,0,0,0-.449-.221,8.867,8.867,0,0,0-1.506-.014c-.125.007-.167.064-.2.171-.1.338-.189.68-.267,1.022a2.747,2.747,0,0,0-.1.588c0,.089.036.135.139.142.185.011.374.011.523.011" transform="translate(-23.235 -0.955)" fill="#37398b"/>
  <path id="Path_40406" data-name="Path 40406" d="M44.6,1.611c.267,0,.538,0,.8,0,.078,0,.1.018.1.1,0,.794.014,1.585.025,2.379,0,.363.007.723.043,1.086,0,.039-.007.093.039.107s.078-.036.107-.068a3.986,3.986,0,0,0,.345-.531c.563-.969,1.083-1.962,1.61-2.952a.211.211,0,0,1,.217-.125c.424.011.848.011,1.271.018.057,0,.114,0,.171.007.146.011.15.014.082.142-.4.766-.823,1.513-1.25,2.261-.83,1.449-1.656,2.9-2.546,4.312a9.069,9.069,0,0,1-.7.979,1.951,1.951,0,0,1-1.417.741c-.4.028-.794.057-1.193.05-.342,0-.4-.082-.328-.417.057-.271.128-.538.2-.8a.432.432,0,0,1,.4-.349,3.215,3.215,0,0,0,.655-.142.645.645,0,0,0,.463-.616A12.117,12.117,0,0,0,43.712,6.4c-.039-.954-.093-1.909-.139-2.863-.021-.481-.043-.965-.068-1.449v-.2c0-.242.007-.253.253-.26.278-.011.559,0,.84,0V1.611" transform="translate(-13.426 0.616)" fill="#37398b"/>
  <path id="Path_40407" data-name="Path 40407" d="M45.361,7.653a6.855,6.855,0,0,0-1.043.057c-.075.011-.121,0-.146-.085a1.5,1.5,0,0,0-.1-.235c-.071-.15-.132-.178-.292-.125a5.661,5.661,0,0,0-.662.278,3.793,3.793,0,0,1-1.855.363,1.17,1.17,0,0,1-1.075-.826,1.893,1.893,0,0,1,.043-.787,2.087,2.087,0,0,1,.68-1.275,2.941,2.941,0,0,1,1.033-.506c.648-.2,1.318-.285,1.976-.417a3.308,3.308,0,0,0,.758-.221.7.7,0,0,0,.424-.488.372.372,0,0,0-.253-.495,1.325,1.325,0,0,0-1.407.207.968.968,0,0,1-.751.281c-.36-.014-.723.025-1.086-.011l-.036,0c-.224-.025-.264-.1-.15-.292a2.618,2.618,0,0,1,1.56-1.268,6.439,6.439,0,0,1,3.091-.1,1.59,1.59,0,0,1,.869.552.812.812,0,0,1,.135.769c-.142.726-.331,1.439-.509,2.158-.171.694-.345,1.385-.488,2.087a.755.755,0,0,0-.025.253c.007.1-.021.135-.125.132-.21-.007-.417,0-.566,0M42.918,6.66c.053,0,.107,0,.157,0a1.5,1.5,0,0,0,.741-.174,1.643,1.643,0,0,0,.723-1.353c0-.064-.014-.085-.082-.078a4.375,4.375,0,0,0-1.7.484.765.765,0,0,0-.431.78.315.315,0,0,0,.264.32,1.121,1.121,0,0,0,.328.021" transform="translate(-18.012 0.509)" fill="#37398b"/>
  <path id="Path_40408" data-name="Path 40408" d="M40.792,7.552h-.744c-.164,0-.164,0-.11-.164.028-.1.061-.2.085-.292.018-.071.032-.153-.032-.207a.2.2,0,0,0-.207,0,2.9,2.9,0,0,0-.612.349,2.673,2.673,0,0,1-.94.452A2.321,2.321,0,0,1,36.91,7.63,1.01,1.01,0,0,1,36.223,6.6a6.6,6.6,0,0,1,.231-1.513c.253-1.086.58-2.154.883-3.23a.273.273,0,0,1,.249-.217,7.658,7.658,0,0,1,1.107-.021,2.263,2.263,0,0,1,.534.05c.093.021.114.061.085.16-.292,1.026-.566,2.051-.78,3.094a3.333,3.333,0,0,0-.085.652.486.486,0,0,0,.477.538,1.217,1.217,0,0,0,1.193-.62,9.02,9.02,0,0,0,.5-1.382c.182-.605.356-1.214.538-1.823a1.315,1.315,0,0,1,.342-.623.164.164,0,0,1,.135-.057c.47,0,.937.007,1.407.014.235.007.246.021.189.246q-.716,2.794-1.506,5.559a.112.112,0,0,1-.128.1c-.267,0-.538,0-.8,0v.028" transform="translate(-28.1 0.618)" fill="#37398b"/>
  <path id="Path_40409" data-name="Path 40409" d="M45.831,8.6c-.509.456-1.015.915-1.524,1.371a5.959,5.959,0,0,1-.506.431c.833-3.052,1.667-6.1,2.51-9.191l.078.15q.433.865.872,1.731c.014.032.036.061.053.093s.036.089.057.132c.431.855.862,1.713,1.293,2.567.025.053.057.1-.011.153q-.807.726-1.61,1.456c-.406.367-.808.737-1.214,1.107" transform="translate(-8.694 -0.409)" fill="#f36f20"/>
  <path id="Path_40410" data-name="Path 40410" d="M44.707,8.6c.406-.37.808-.741,1.214-1.107q.8-.732,1.61-1.456c.068-.057.036-.1.011-.153-.431-.855-.862-1.713-1.293-2.567-.021-.043-.039-.089-.057-.132.164-.588.324-1.175.488-1.763.018-.068.039-.139.057-.21.05,0,.05.039.064.064q1.154,2.3,2.311,4.59c.039.075.014.107-.036.15q-2.185,1.982-4.366,3.96c-.153.135-.3.271-.456.41-.028-.032-.007-.053,0-.078.142-.531.288-1.058.431-1.588.011-.039.014-.078.021-.118" transform="translate(-7.569 -0.409)" fill="#37398b"/>
</svg>
