<svg id="Group_9968" data-name="Group 9968" xmlns="http://www.w3.org/2000/svg" width="39.869" height="10.761" viewBox="0 0 39.869 10.761">
  <path id="Path_40393" data-name="Path 40393" d="M98.615.979H95.542a.6.6,0,0,0-.452.363L93.822,9.294a.241.241,0,0,0,.271.274h1.631a.241.241,0,0,0,.271-.274l.36-2.258a.412.412,0,0,1,.452-.36h1a3.148,3.148,0,0,0,3.522-2.984,2.379,2.379,0,0,0-.36-1.991,3.651,3.651,0,0,0-2.35-.723m.363,2.984c-.185,1.083-1,1.083-1.809,1.083h-.545l.36-2.08c0-.085.093-.178.274-.178h.178c.545,0,1.09,0,1.357.363.185.089.185.36.185.812" transform="translate(-71.672 -0.979)" fill="#139ad6"/>
  <path id="Path_40394" data-name="Path 40394" d="M92.4.979H89.322a.6.6,0,0,0-.452.363L87.6,9.294a.241.241,0,0,0,.271.274h1.449a.607.607,0,0,0,.452-.36l.36-2.172a.412.412,0,0,1,.452-.36h1A3.148,3.148,0,0,0,95.1,3.692a2.379,2.379,0,0,0-.36-1.991A3.481,3.481,0,0,0,92.4.979m.363,2.984c-.185,1.083-1,1.083-1.809,1.083H90.5l.36-2.08c0-.085.093-.178.274-.178h.178c.545,0,1.086,0,1.357.363a.957.957,0,0,1,.093.812" transform="translate(-87.602 -0.979)" fill="#263b80"/>
  <path id="Path_40395" data-name="Path 40395" d="M96.609,1.923H95.159c-.085,0-.267.093-.267.182l-.093.452-.089-.182a2.126,2.126,0,0,0-1.716-.634A3.471,3.471,0,0,0,89.65,4.725a2.694,2.694,0,0,0,.538,2.261,2.279,2.279,0,0,0,1.9.723,2.886,2.886,0,0,0,2.08-.815l-.093.452a.238.238,0,0,0,.271.271H95.7a.6.6,0,0,0,.452-.36l.812-5.064c-.085-.089-.267-.271-.36-.271m-2.08,2.9A1.745,1.745,0,0,1,92.813,6.26a1.45,1.45,0,0,1-1-.36,1.941,1.941,0,0,1-.271-1.083,1.616,1.616,0,0,1,2.624-1.09,1.594,1.594,0,0,1,.36,1.09" transform="translate(-82.504 0.972)" fill="#263b80"/>
  <path id="Path_40396" data-name="Path 40396" d="M102.8,1.923h-1.446c-.089,0-.271.093-.271.182l-.093.452-.085-.182a2.142,2.142,0,0,0-1.724-.634,3.48,3.48,0,0,0-3.344,2.984,2.708,2.708,0,0,0,.545,2.261,2.272,2.272,0,0,0,1.9.723,2.9,2.9,0,0,0,2.08-.815l-.089.452a.236.236,0,0,0,.267.271H101.9a.588.588,0,0,0,.452-.36l.815-5.064c-.093-.089-.178-.271-.363-.271m-2.076,2.9a1.752,1.752,0,0,1-1.72,1.442,1.44,1.44,0,0,1-.993-.36,1.911,1.911,0,0,1-.271-1.083,1.614,1.614,0,0,1,2.621-1.09,1.046,1.046,0,0,1,.363,1.09" transform="translate(-66.643 0.972)" fill="#139ad6"/>
  <path id="Path_40397" data-name="Path 40397" d="M98.778,1.791H97.243a.453.453,0,0,0-.36.185l-1.994,3.07-.9-2.892a.415.415,0,0,0-.452-.271H92.09c-.182,0-.274.178-.274.36l1.631,4.793L91.909,9.208c-.093.178,0,.452.182.452h1.442a.473.473,0,0,0,.367-.185l4.971-7.14c.271-.274.089-.545-.093-.545" transform="translate(-76.811 1.101)" fill="#263b80"/>
  <path id="Path_40398" data-name="Path 40398" d="M99.152,1.211,97.884,9.347a.241.241,0,0,0,.271.271h1.268a.6.6,0,0,0,.452-.363L101.139,1.3a.241.241,0,0,0-.271-.274H99.422c-.089-.089-.182,0-.271.182" transform="translate(-61.27 -0.94)" fill="#139ad6"/>
</svg>
