<svg id="Group_9966" data-name="Group 9966" xmlns="http://www.w3.org/2000/svg" width="30.391" height="9.401" viewBox="0 0 30.391 9.401">
  <path id="Path_40399" data-name="Path 40399" d="M20.167,10.177,22.88,1.225H25.3l-2.717,8.952Z" transform="translate(-11.392 -1.03)" fill="#005a9b" fill-rule="evenodd"/>
  <path id="Path_40400" data-name="Path 40400" d="M25.391,1.226l-2.179,3.8a9.024,9.024,0,0,0-1.033,2.122h-.036c.039-.8-.071-1.773-.082-2.325l-.242-3.593H17.742l-.039.242a1.687,1.687,0,0,1,1.837,1.6l.794,7.1h2.51l5.074-8.949Z" transform="translate(-17.703 -1.027)" fill="#005a9b" fill-rule="evenodd"/>
  <path id="Path_40401" data-name="Path 40401" d="M29.711,10.164l-.068-1.332-3.023,0L26,10.164H23.372L28.14,1.23h3.226l.808,8.934Zm-.278-5.281a19.707,19.707,0,0,1,0-2.1h-.036c-.15.442-.78,1.777-1.061,2.432l-.9,1.962h2.126Z" transform="translate(-3.183 -1.017)" fill="#005a9b" fill-rule="evenodd"/>
  <path id="Path_40402" data-name="Path 40402" d="M24.951,10.571A6.758,6.758,0,0,1,21.3,9.545l1.154-1.763a4.469,4.469,0,0,0,2.61.876,1.126,1.126,0,0,0,1.061-.509c.338-.584-.078-.9-1.022-1.432l-.47-.3c-1.4-.961-2.008-1.87-1.346-3.458.42-1.018,1.535-1.788,3.372-1.788a5.447,5.447,0,0,1,3.151,1.083L28.479,3.809A2.955,2.955,0,0,0,26.6,2.986a1.12,1.12,0,0,0-1.033.463c-.253.5.082.84.819,1.3l.556.353c1.7,1.072,2.108,2.2,1.681,3.251a3.511,3.511,0,0,1-3.675,2.218" transform="translate(-8.498 -1.17)" fill="#005a9b" fill-rule="evenodd"/>
  <path id="Path_40403" data-name="Path 40403" d="M26.369,2.219h-.1V1.578h.246c.15,0,.228.053.228.185a.164.164,0,0,1-.164.174l.174.281h-.114l-.167-.274h-.1Zm.121-.363c.075,0,.146-.007.146-.1s-.075-.089-.135-.089h-.132v.189Zm0,.609a.555.555,0,0,1-.566-.577.565.565,0,1,1,1.129,0,.56.56,0,0,1-.563.577m0-1.054a.447.447,0,0,0-.445.477.443.443,0,0,0,.445.477.448.448,0,0,0,.438-.477.448.448,0,0,0-.438-.477" transform="translate(3.342 -0.809)" fill="#005a9b" fill-rule="evenodd"/>
</svg>
