<svg id="Group_9970" data-name="Group 9970" xmlns="http://www.w3.org/2000/svg" width="29.644" height="17.733" viewBox="0 0 29.644 17.733">
  <path id="Path_40374" data-name="Path 40374" d="M5.744,8.678l.174-.684c.666-.2,2.023-.292,2.279.427A11.381,11.381,0,0,1,7.841,11.1l-.648.007c-.146-.182-.025.157-.128-.292-.62.556-1.941.466-1.841-.655s1.068-.969,2.115-1.129c-.018-.712-.912-.52-1.6-.356Zm4.879-.11c-.595,0-.684-.128-1.2.1.064.645.4.392.865.7.883.584-.064,2.386-2.169,1.613l.118-.655c.595.118.894.235,1.35-.021.11-.919-1.524-.317-1.068-1.795.246-.8,1.332-.694,2.226-.612l-.128.666ZM1.542,7.176l1.4.046.146,2.186.755-1.752c.256-.627.082-.491,1.688-.474L4.807,11.1l-.787-.011.431-2.81L3.294,11.1l-.94-.025A20.564,20.564,0,0,0,2.133,8.24L1.66,11.086l-.819-.007Zm13.3,8.3.385-.456c-.769-.1-.9.118-1.25-.5l1.759-.018a4.622,4.622,0,0,0,.381-.566c-2-.135-2.571.374-2.888-.5h3.219l.356-.556-3.978-.018-.182-.463,4.284-.018c.249-.139.249-.3.31-.577L13.183,11.8c-.73.007-.773.171-.912-.495h5.106l.164-.563-1.5-.018-.075.381-.855-.036.538-3.184.812.11c0,.018.018.082.018.11l.007.053.046.164a.928.928,0,0,1,.9-.456l-.274.741c-.157.2-.612-.028-.8.516l.89.039a5.957,5.957,0,0,1,.374-1.214l.011-.274-5.587.011-.018.2c.3,0,.292-.053.463.093l-.082.538c-.566.139-.548-.2-.6.538.082.135-.018.064.157.11l.356.007A1.556,1.556,0,0,1,15.006,8.3c.21.31.42,1.328-.1,1.41l-1.741.018c.082.922,1.14.73,1.823.5-.028.385,0,.694-.356.823a2.757,2.757,0,0,1-1.182,0A1.3,1.3,0,0,1,12.3,9.665l-.328-.011c-.3-.135-.064,0-.221-.374-.128.766-.474,1.257.474,1.15-.053.456.011.609-.491.666-1.456.171-.983-.8-.748-2.108.374-2.08.082-1.823,1.14-1.805l5.434.011-.11-.566L12.2,6.61l.1-.456,4.968-.028c-.128-.773-.153-.58-1.959-.58H12.556c.189-.669.089-.484,1.877-.484h2.414l-.253-.577-3.5-.007L13.329,4l2.927-.018c-.374-.766-.356-.548-2.425-.584.264-.655.73-.491,1.542-.491-.228-.367-.4-.338-.531-.648a10.056,10.056,0,0,1-.976-.719,8.862,8.862,0,1,0-3.372,16.024c2.607-.445,3.262-1.5,4.337-2.1Z" transform="translate(0 0)" fill="#e41d2c" fill-rule="evenodd"/>
  <path id="Path_40375" data-name="Path 40375" d="M12.118,7.937c2.827-.573,2.361.823,2.133,1.951-.071.338-.071,1-.335,1.186a4.052,4.052,0,0,1-.474-.011c-.256-.1-.139.2-.174-.264-.766.438-1.98.538-1.834-.684.118-.976,1.1-1.129,2.108-1.086-.039-.719-.694-.6-1.606-.374l.192-.719Zm2.792-.082.755.011a.131.131,0,0,1,.018.061l.118.338a.928.928,0,0,1,.794-.4l-.11.645-.37.146c-.748.246-.705,1.186-.9,2.418h-.848Zm4.017-.694H19.7l-.666,3.921c-.865.011-.655.057-.929-.271-.563.837-2.261.061-1.741-1.67.385-1.293,1.677-1.642,2.315-.876l.256-1.111ZM6.175,2.24c.139.31.31.281.531.648-.812,0-1.278-.174-1.542.491,2.069.036,2.051-.182,2.425.584l-2.927.018-.235.474,3.5.011.253.573H5.766c-1.777,0-1.688-.174-1.877.484H6.642c1.805,0,1.83-.192,1.959.58l-4.968.028-.1.456,5.249.018.11.566L3.458,7.161l-.071.513,5.587-.011-.011.274c.42-.4.349-.609,1.132-.837a3.088,3.088,0,0,1,1.7.089l-.135.84c-1.1-.328-1.805-.246-2.062.883-.281,1.211.677,1.67,1.688,1.186-.093.883-.239,1.1-1.278.965A1.626,1.626,0,0,1,8.746,10.2h-1.3l-.071.5,1.492.018-.164.563H3.6c.135.669.182.5.912.495l4.056.007c-.075.274-.064.438-.31.577l-4.284.018.182.463,3.974.021-.356.556H4.551c.32.865.887.363,2.892.5a5.387,5.387,0,0,1-.385.563L5.3,14.5c.338.612.484.4,1.25.5l-.385.456a9.259,9.259,0,0,0,4.423,2.126,9.2,9.2,0,0,0,5.452-.794A8.859,8.859,0,0,0,15.986.883,9.144,9.144,0,0,0,8.08.937,11.894,11.894,0,0,0,6.186,2.251Z" transform="translate(8.674 0.029)" fill="#f8b02b" fill-rule="evenodd"/>
  <path id="Path_40376" data-name="Path 40376" d="M.236,5.931l.819.011L1.529,3.1a20.465,20.465,0,0,1,.221,2.835l.94.028L3.847,3.132l-.431,2.81.787.007.719-3.91c-1.606-.021-1.432-.157-1.688.474L2.479,4.261,2.333,2.075l-1.4-.046Z" transform="translate(0.604 5.154)" fill="#fefefe" fill-rule="evenodd"/>
  <path id="Path_40377" data-name="Path 40377" d="M8.3,5.193c-.684-.7-.1-1.87.538-1.713s.509,1.7-.538,1.713M9.415,3.124C8.778,2.358,7.492,2.7,7.1,4,6.58,5.723,8.275,6.507,8.842,5.666c.274.328.064.274.929.274l.666-3.921H9.661L9.4,3.135Z" transform="translate(17.934 5.174)" fill="#fefefe" fill-rule="evenodd"/>
  <path id="Path_40378" data-name="Path 40378" d="M6.641,4.733c-.128-.612.438-.848.976-.737a.678.678,0,0,1-.976.737m-.292-2.4-.192.719c.912-.217,1.578-.338,1.606.374-1-.046-1.987.11-2.108,1.086C5.5,5.737,6.723,5.637,7.488,5.2c.036.463-.082.164.174.264a4.052,4.052,0,0,0,.474.011c.274-.174.274-.851.335-1.186.239-1.14.694-2.525-2.133-1.951Z" transform="translate(14.447 5.641)" fill="#fefefe" fill-rule="evenodd"/>
  <path id="Path_40379" data-name="Path 40379" d="M3.433,3.959a.75.75,0,0,1-.239.7c-.135.1-.545.221-.709.064-.513-.463.445-.773.937-.766ZM1.984,3.029c.694-.164,1.585-.356,1.6.356-1.047.164-2.012.018-2.112,1.129s1.211,1.214,1.841.659c.1.445-.018.107.128.292l.645-.011a11.4,11.4,0,0,0,.356-2.671c-.253-.73-1.6-.637-2.279-.427l-.171.684Z" transform="translate(3.76 5.65)" fill="#fefefe" fill-rule="evenodd"/>
  <path id="Path_40380" data-name="Path 40380" d="M4.455,3.515a.657.657,0,0,1,.858-.584c.192.274.192.192.228.584Zm-.965.046-.036.491A1.309,1.309,0,0,0,4.6,5.437a2.718,2.718,0,0,0,1.186,0c.356-.118.328-.438.356-.819-.684.228-1.741.42-1.823-.5L6.061,4.1c.52-.082.31-1.093.1-1.414a1.56,1.56,0,0,0-2.681.876Z" transform="translate(8.846 5.62)" fill="#fefefe" fill-rule="evenodd"/>
  <path id="Path_40381" data-name="Path 40381" d="M5.223,2.892a5.743,5.743,0,0,0-.374,1.214v.5L5,5.163a1.641,1.641,0,0,0,1.261.865c1.04.135,1.186-.082,1.275-.969-1.022.484-1.969.028-1.684-1.182.264-1.14.976-1.214,2.058-.887l.139-.837a3.281,3.281,0,0,0-1.7-.093c-.783.221-.709.438-1.129.84Z" transform="translate(12.418 5.075)" fill="#fefefe" fill-rule="evenodd"/>
  <path id="Path_40382" data-name="Path 40382" d="M4.9,2.258c-.894-.075-1.98-.192-2.226.612-.456,1.474,1.168.872,1.068,1.795-.466.256-.758.135-1.35.018l-.118.655c2.1.776,3.045-1.018,2.169-1.613-.466-.31-.8-.046-.865-.7.52-.239.6-.1,1.2-.1l.128-.666Z" transform="translate(5.836 5.648)" fill="#fefefe" fill-rule="evenodd"/>
  <path id="Path_40383" data-name="Path 40383" d="M4.046,4.131l.064-.217c.053-.741.036-.4.6-.538l.082-.538c-.174-.146-.164-.093-.466-.093l.018-.2.075-.509c-1.058-.018-.766-.274-1.14,1.805-.239,1.3-.712,2.279.748,2.1.491-.053.438-.21.491-.662-.94.107-.591-.385-.474-1.15" transform="translate(7.717 5.16)" fill="#fefefe" fill-rule="evenodd"/>
  <path id="Path_40384" data-name="Path 40384" d="M5.169,5.068l.071-.5.093-.545L5.5,3.473c.2-.548.655-.32.8-.52l.271-.737a.905.905,0,0,0-.9.456l-.046-.164-.011-.057c0-.018-.018-.089-.018-.107l-.812-.11-.538,3.18.858.039.075-.385Z" transform="translate(10.877 5.673)" fill="#fefefe" fill-rule="evenodd"/>
  <path id="Path_40385" data-name="Path 40385" d="M6.469,5.433h.848c.2-1.232.157-2.169.9-2.414l.37-.146.11-.648a.923.923,0,0,0-.794.4L7.79,2.289a.431.431,0,0,0-.018-.064l-.755-.011Z" transform="translate(16.566 5.671)" fill="#fefefe" fill-rule="evenodd"/>
  <path id="Path_40386" data-name="Path 40386" d="M7.59,4.153c1.058-.018,1.175-1.56.538-1.713S6.906,3.452,7.59,4.153" transform="translate(18.647 6.214)" fill="#f8b02b" fill-rule="evenodd"/>
  <path id="Path_40387" data-name="Path 40387" d="M2.8,2.7c-.491-.011-1.449.3-.94.766.164.146.577.028.712-.064a.778.778,0,0,0,.239-.7Z" transform="translate(4.393 6.91)" fill="#e41d2c" fill-rule="evenodd"/>
  <path id="Path_40388" data-name="Path 40388" d="M4.526,3.267l1.3.011-.153-.559H4.619Z" transform="translate(11.592 6.963)" fill="#e41d2c" fill-rule="evenodd"/>
  <path id="Path_40389" data-name="Path 40389" d="M5.936,3.459a.677.677,0,0,0,.972-.737c-.545-.1-1.1.135-.972.737" transform="translate(15.152 6.915)" fill="#f8b02b" fill-rule="evenodd"/>
  <path id="Path_40390" data-name="Path 40390" d="M4.552,3.113H5.61v-.5l-.894-.046Z" transform="translate(11.658 6.569)" fill="#f8b02b" fill-rule="evenodd"/>
  <path id="Path_40391" data-name="Path 40391" d="M3.735,3H4.821c-.028-.381-.036-.31-.228-.584A.657.657,0,0,0,3.735,3" transform="translate(9.565 6.139)" fill="#e41d2c" fill-rule="evenodd"/>
  <path id="Path_40392" data-name="Path 40392" d="M3.3,2.773c.153.374-.082.239.217.374l.331.011.036-.495-.356-.007c-.182-.039-.082.025-.157-.11l-.061.217Z" transform="translate(8.459 6.518)" fill="#f8b02b" fill-rule="evenodd"/>
</svg>
