<svg xmlns="http://www.w3.org/2000/svg" width="275.562" height="124.549" viewBox="0 0 275.562 124.549">
  <path id="Path_70521" data-name="Path 70521" d="M107.712-97.1,108.8-80.512,66.368-12.376,65.008-10a43.674,43.674,0,0,0-2.72,5.916,19.577,19.577,0,0,0-1.36,7.072H59.7L53.176-9.928ZM12.784-9.928V0h-15.1V-1.36H-.136A10.278,10.278,0,0,0,6.392-3.6a9.223,9.223,0,0,0,3.4-6.324Zm6.664,2.176v.68A6.058,6.058,0,0,0,21.012-3.06a4.761,4.761,0,0,0,3.74,1.836h2.176V0H18.5V-7.752Zm1.9-89.352h1.224l5.576,15.5L18.5,0H8.432Zm1.224,0L68.816-27.88,59.7,2.992,18.9-59.3Zm86.36,0L122.264,0H96.832L90.168-56.032,107.712-97.1Zm9.112,87.176h2.992A9.85,9.85,0,0,0,124.508-3.6a10,10,0,0,0,6.46,2.244h2.176V0h-15.1ZM96.016-7.752h.952V0H88.536V-1.224h2.176a4.761,4.761,0,0,0,3.74-1.836,6.058,6.058,0,0,0,1.564-4.012q0-.272,0-.408T96.016-7.752ZM170.68-95.2V-5.44a31.242,31.242,0,0,1-3.264,14.416,31.805,31.805,0,0,1-8.976,10.812,35.824,35.824,0,0,1-12.92,6.324A40.62,40.62,0,0,1,130.7,27.2V25.976a22.356,22.356,0,0,0,9.588-7.752,32.354,32.354,0,0,0,4.9-11.356,57.562,57.562,0,0,0,1.428-12.716V-95.2Zm-23.664,9.928h-.408a8.755,8.755,0,0,0-2.652-6.052A8.251,8.251,0,0,0,137.9-93.84h-1.768V-95.2h10.88Zm23.256,0V-95.2h10.88v1.36h-1.768a8.251,8.251,0,0,0-6.052,2.516,8.754,8.754,0,0,0-2.652,6.052ZM221.68-95.2h15.776q12.648,0,20.332,3.536t11.356,9.384a27.006,27.006,0,0,1,4.08,13.056,29.546,29.546,0,0,1-2.312,13.192,26.667,26.667,0,0,1-7.276,9.792A28.564,28.564,0,0,1,253.028-40.6a28.312,28.312,0,0,1-12.376.68,31.43,31.43,0,0,1-12.58-5.1v-1.36l1.5-.068a16.032,16.032,0,0,0,3.876-.816,22.969,22.969,0,0,0,4.964-2.312,17.887,17.887,0,0,0,4.9-4.624,21.893,21.893,0,0,0,3.536-7.956,22.469,22.469,0,0,0,.748-4.08,24.834,24.834,0,0,0,.068-4.08q-.272-8.568-4.76-13.6t-12.512-5.032H223.04l-.34-1.564-.68-3.128Zm1.768,0V0H199.376V-95.2ZM199.784-9.928V0H188.9V-1.36h1.768a8.251,8.251,0,0,0,6.052-2.516,8.755,8.755,0,0,0,2.652-6.052Zm0-75.344h-.408a8.144,8.144,0,0,0-2.584-6.052,8.477,8.477,0,0,0-6.12-2.516H189.04L188.9-95.2h10.88ZM223.04-9.928h.408A8.754,8.754,0,0,0,226.1-3.876a8.251,8.251,0,0,0,6.052,2.516h1.768V0H223.04Z" transform="translate(2.312 97.104)" fill="#a18a66" opacity="0.05"/>
</svg>
