<svg xmlns="http://www.w3.org/2000/svg" width="19.919" height="25.75" viewBox="0 0 19.919 25.75">
  <g id="Bag" transform="translate(0.745 0.75)">
    <g id="Group_18351" data-name="Group 18351" transform="translate(0.001 0)">
      <path id="Path_85" data-name="Path 85" d="M181.107,26.791A8.445,8.445,0,0,1,180,26.46a2.952,2.952,0,0,1-1.876-2.369,4.836,4.836,0,0,1,.03-1.04c.112-1.305.232-2.611.351-3.915.114-1.246.231-2.492.343-3.738.1-1.077.19-2.154.285-3.23.091-1.032.18-2.066.278-3.1a.66.66,0,0,1,.731-.627c.78-.006,1.559,0,2.339,0h9.758c.734,0,1.469,0,2.2,0a.7.7,0,0,1,.789.738c.091,1.107.2,2.212.3,3.318.1,1.084.191,2.168.288,3.252s.2,2.168.3,3.252q.123,1.339.241,2.677c.05.568.083,1.138.149,1.7a2.807,2.807,0,0,1-1.286,2.752,3.4,3.4,0,0,1-1.592.615.417.417,0,0,0-.1.041Z" transform="translate(-178.104 -2.791)" fill="none" stroke="#777d85" stroke-width="1.5"/>
      <path id="Path_86" data-name="Path 86" d="M191.641,8.439l-.035-1.432a4.216,4.216,0,0,0-8.432,0V8.441" transform="translate(-178.445 -2.791)" fill="none" stroke="#777d85" stroke-width="1.5"/>
      <path id="Path_87" data-name="Path 87" d="M191.62,12.229a4.216,4.216,0,1,1-8.432,0" transform="translate(-178.445 -3.219)" fill="none" stroke="#777d85" stroke-linecap="round" stroke-width="1.5"/>
    </g>
    <rect id="Rectangle_7420" data-name="Rectangle 7420" width="18" height="25" transform="translate(0 0)" fill="none"/>
  </g>
</svg>
