<svg id="Heart" xmlns="http://www.w3.org/2000/svg" width="26" height="25" viewBox="0 0 26 25">
  <g id="Group_18350" data-name="Group 18350" transform="translate(-52.36 1)">
    <path id="Path_84" data-name="Path 84" d="M149.746,5.708a3.088,3.088,0,0,1,6.16-.011" transform="translate(-87.459 -2.83)" fill="none" stroke="#fff" stroke-width="1.5"/>
    <path id="Path_83" data-name="Path 83" d="M164.4,12.614c-.06.374-.113.751-.18,1.124a11.819,11.819,0,0,1-1.4,3.739A20.881,20.881,0,0,1,158.113,23a32.537,32.537,0,0,1-5.351,3.722.676.676,0,0,1-.739,0,31,31,0,0,1-7.223-5.487,17.6,17.6,0,0,1-3.179-4.4,10.538,10.538,0,0,1-1.224-5.19,7.039,7.039,0,0,1,2.6-5.215,6.181,6.181,0,0,1,6.447-1.041A6.575,6.575,0,0,1,152.313,7.6c.018.025.042.045.078.085.048-.053.1-.1.137-.152A6.531,6.531,0,0,1,157.57,4.92a5.909,5.909,0,0,1,3.871,1.231,7.185,7.185,0,0,1,2.839,4.468c.046.228.082.458.123.687Z" transform="translate(-87.027 -2.83)" fill="#fff"/>
  </g>
  <rect id="Rectangle_7419" data-name="Rectangle 7419" width="26" height="25" fill="none"/>
</svg>
