<svg id="Logo" xmlns="http://www.w3.org/2000/svg" width="178.818" height="61.593" viewBox="0 0 178.818 61.593">
  <g id="c" transform="translate(0 0)">
    <path id="Path_1" data-name="Path 1" d="M264.546,523.8a5.175,5.175,0,0,1-1.944,1.645,6.291,6.291,0,0,1-2.892.586h-4.637v-9.772h5.235a1.859,1.859,0,0,1,1.433.611,2.015,2.015,0,0,1,.561,1.433v.424h.337v-6.07H262.3v.411a2.058,2.058,0,0,1-.561,1.433,1.958,1.958,0,0,1-1.433.623h-5.235v-10.1h6.667a2.4,2.4,0,0,1,2.071,2.43V508h.324v-4.736a4.942,4.942,0,0,1-1,.262c-.461.1-.972.175-1.521.237a11.193,11.193,0,0,1-1.546.1H249.4l.038.336h.4a2.071,2.071,0,0,1,1.5.611,2,2,0,0,1,.636,1.483v18.485a2.163,2.163,0,0,1-.648,1.483,2.022,2.022,0,0,1-1.483.611H249.4v.336h14.97l1.807-5.871h-.336a10.978,10.978,0,0,1-1.3,2.468" transform="translate(-236.764 -482.266)" fill="#192537"/>
    <path id="Path_2" data-name="Path 2" d="M341.97,504.368h.3a1.345,1.345,0,0,1,1.1.536,1.638,1.638,0,0,1,.162,1.533h.006l-4.078,14.285-6.591-17.17-.007-.056h-.3l-6.2,17.478-4.69-14.536h.023a1.418,1.418,0,0,1,1.271-2.069h.3v-.337h-8.339v.337h.274a3.427,3.427,0,0,1,1.645.486,2.779,2.779,0,0,1,1.251,1.5l7.736,21.485h.3a10.868,10.868,0,0,1,.2-1.7,13.178,13.178,0,0,1,.349-1.421c.125-.386.187-.586.187-.586l5.121-14.262,6.944,17.964h.336a9.422,9.422,0,0,1,.162-1.645c.112-.573.224-1.047.337-1.458s.174-.6.174-.6l5.584-17.834a2.594,2.594,0,0,1,1.209-1.448,3.554,3.554,0,0,1,1.67-.486h.262v-.337H341.97Z" transform="translate(-285.08 -482.44)" fill="#192537"/>
    <path id="Path_3" data-name="Path 3" d="M461.619,523.8a5.175,5.175,0,0,1-1.945,1.645,6.29,6.29,0,0,1-2.892.586h-4.637v-9.772h5.235a1.859,1.859,0,0,1,1.433.611,2.016,2.016,0,0,1,.561,1.433v.424h.337v-6.07h-.337v.411a2.058,2.058,0,0,1-.561,1.433,1.958,1.958,0,0,1-1.433.623h-5.235v-10.1h6.674a2.434,2.434,0,0,1,1.378.7,2.359,2.359,0,0,1,.686,1.733V508h.336v-4.736a5.112,5.112,0,0,1-1.009.262c-.461.1-.972.175-1.508.237a11.493,11.493,0,0,1-1.558.1h-10.67l.038.336h.4a2.071,2.071,0,0,1,1.5.611,2,2,0,0,1,.636,1.483v18.485a2.164,2.164,0,0,1-.648,1.483,2.023,2.023,0,0,1-1.483.611h-.436v.336h14.97l1.807-5.871h-.336a10.983,10.983,0,0,1-1.3,2.468" transform="translate(-381.842 -482.266)" fill="#192537"/>
    <path id="Path_4" data-name="Path 4" d="M208.819,505.51h-5.572v.337h.436a2.023,2.023,0,0,1,1.483.611,2.163,2.163,0,0,1,.648,1.483V528.42a8.831,8.831,0,0,1-.461,2.854A7.248,7.248,0,0,1,204,533.7a5.148,5.148,0,0,1-2.082,1.52v.3a6.534,6.534,0,0,0,2.7-.449,7.05,7.05,0,0,0,2.231-1.458,6.74,6.74,0,0,0,1.521-2.244,7.463,7.463,0,0,0,.549-2.854V507.94a2.163,2.163,0,0,1,.648-1.483,2.023,2.023,0,0,1,1.483-.611h.436v-.337h-2.667Z" transform="translate(-201.914 -483.965)" fill="#192537"/>
    <path id="Path_5" data-name="Path 5" d="M721.958,527.247a2.476,2.476,0,0,1-1.558-.548,2.387,2.387,0,0,1-.872-1.546h0l-2.664-21.376h-.3l-9.4,19.01-9.643-19.01h-.3l-2.635,21.6a2.279,2.279,0,0,1-.793,1.321,2.589,2.589,0,0,1-1.608.548h-.536v.336h6.643v-.3h-.5a1.181,1.181,0,0,1-.922-.449,1.539,1.539,0,0,1-.385-.971l1.407-14.809,8.538,17.064h.324a6.461,6.461,0,0,1,.349-1.533c.2-.536.387-1,.574-1.384s.287-.586.287-.586l6.739-13.8,1.424,15.046a1.578,1.578,0,0,1-.361.974,1.169,1.169,0,0,1-.935.449h-.5v.3h8.164v-.336h-.536Z" transform="translate(-562.449 -482.647)" fill="#192537"/>
    <path id="Path_6" data-name="Path 6" d="M535.146,525.453a5.234,5.234,0,0,1-1.932,1.645,6.348,6.348,0,0,1-2.9.586h-4.637V507.94a2.164,2.164,0,0,1,.648-1.483,2.023,2.023,0,0,1,1.483-.611h.436v-.336H520v.336h.436a2,2,0,0,1,1.483.611,2.11,2.11,0,0,1,.648,1.483v18.485a2.11,2.11,0,0,1-.648,1.483,2,2,0,0,1-1.483.611H520v.336h14.982l1.795-5.871h-.336a10.493,10.493,0,0,1-1.3,2.468" transform="translate(-435.938 -483.918)" fill="#192537"/>
    <path id="Path_7" data-name="Path 7" d="M831.524,521.334a10.482,10.482,0,0,1-1.3,2.468,5.232,5.232,0,0,1-1.932,1.645,6.312,6.312,0,0,1-2.9.586h-4.637v-9.772h5.235a1.84,1.84,0,0,1,1.434.611,1.975,1.975,0,0,1,.573,1.433v.424h.337v-6.07H828v.411a2.016,2.016,0,0,1-.573,1.433,1.939,1.939,0,0,1-1.434.623h-5.235v-10.1h6.675a2.391,2.391,0,0,1,1.378.7,2.359,2.359,0,0,1,.685,1.733V508h.337v-4.737a5.169,5.169,0,0,1-1,.262c-.474.1-.972.175-1.521.237a11.323,11.323,0,0,1-1.546.1H815.1l.025.337h.4a2.078,2.078,0,0,1,1.508.611,2,2,0,0,1,.636,1.483v18.485a2.177,2.177,0,0,1-.661,1.483,2,2,0,0,1-1.483.611H815.1v.336h14.97l1.795-5.871Z" transform="translate(-653.043 -482.265)" fill="#192537"/>
    <path id="Path_8" data-name="Path 8" d="M612.328,504.135h-5.173v.337h.636a1.973,1.973,0,0,1,1.446.586,2.111,2.111,0,0,1,.623,1.446v15.345l-17.737-18.212h-.337s.05.4.162,1.2a21.915,21.915,0,0,1,.175,2.967v17.313a1.981,1.981,0,0,1-.611,1.433,1.948,1.948,0,0,1-1.434.6h-.623v.337h7.927v-.337h-.636a2.043,2.043,0,0,1-2.032-2.032h0l-.018-15.371,17.758,18.2h.312s-.037-.187-.087-.586-.112-.91-.174-1.558-.075-1.371-.075-2.119V506.5a2.018,2.018,0,0,1,.636-1.446,1.986,1.986,0,0,1,1.433-.586h.6v-.337h-2.767Z" transform="translate(-487.078 -482.544)" fill="#192537"/>
    <path id="Path_9" data-name="Path 9" d="M516.676,429.569a8.435,8.435,0,0,1-.81-.6L513.5,427.1a7.417,7.417,0,0,0-.8-.6.365.365,0,0,0-.474.2c-.087.187.037.386.1.548.262.686.523,1.371.785,2.045.523,1.358,1.06,2.717,1.583,4.076.062.162.125.324.187.5a.416.416,0,0,0,.436.287c2.817.012,5.659-.013,8.476,0,.262,0,.4-.038.486-.237.075-.162.137-.349.2-.511l2.368-6.108a.948.948,0,0,0,.137-.549.383.383,0,0,0-.424-.274,1.519,1.519,0,0,0-.436.274L524.1,428.3c-.087.062-1.545,1.184-1.608,1.209-.05-.05-2.181-4.911-2.393-5.372-.112-.274-.187-.611-.549-.586-.3.025-.349.312-.486.624-.125.262-.237.511-.349.772l-1.7,3.852c-.125.249-.224.523-.349.772m-3.241-1.558,2.057,5.385h8.177l2.119-5.41c-.112.038-1.957,1.471-2.044,1.534-.349.262-.673.5-1.01.772-.6.461-.7.063-.935-.486-.361-.823-.723-1.646-1.1-2.468-.187-.423-.362-.835-.549-1.246-.062-.15-.511-1.184-.561-1.234-.062.062-2.194,4.936-2.219,4.974-.187.461-.336,1.022-.91.561-.9-.723-1.87-1.446-2.767-2.181-.075-.05-.187-.162-.262-.2" transform="translate(-430.188 -423.547)" fill="#a18a66" fill-rule="evenodd"/>
    <rect id="Rectangle_3" data-name="Rectangle 3" width="10.67" height="0.76" transform="translate(68.877 9.848)" fill="#a18a66"/>
    <rect id="Rectangle_4" data-name="Rectangle 4" width="10.67" height="0.76" transform="translate(99.27 9.848)" fill="#a18a66"/>
    <path id="Path_10" data-name="Path 10" d="M318.137,640.505h.874v-2.241h2.114v-.829h-2.114V635.9h2.428v-.836h-3.3Z" transform="translate(-287.205 -579.166)" fill="#a18a66"/>
    <path id="Path_11" data-name="Path 11" d="M347.882,635.672a2.847,2.847,0,0,0-.889-.609,2.734,2.734,0,0,0-2.151,0,2.8,2.8,0,0,0-.885.609,2.906,2.906,0,0,0-.6.889,2.658,2.658,0,0,0-.217,1.068,2.722,2.722,0,0,0,.217,1.087,2.761,2.761,0,0,0,.6.882,2.8,2.8,0,0,0,.881.59,2.833,2.833,0,0,0,2.155,0,2.8,2.8,0,0,0,.889-.594,2.83,2.83,0,0,0,.6-.885,2.665,2.665,0,0,0,.22-1.079,2.62,2.62,0,0,0-.22-1.068,2.932,2.932,0,0,0-.6-.889m-.217,2.712a1.982,1.982,0,0,1-.4.616,1.84,1.84,0,0,1-.594.414,1.788,1.788,0,0,1-.728.15,1.849,1.849,0,0,1-.747-.15,1.918,1.918,0,0,1-1.012-1.03,1.95,1.95,0,0,1-.146-.755,2.02,2.02,0,0,1,.142-.758,1.92,1.92,0,0,1,.4-.623,1.88,1.88,0,0,1,2.081-.419,1.806,1.806,0,0,1,.6.419,2.081,2.081,0,0,1,.4.62,1.927,1.927,0,0,1,.149.762,1.95,1.95,0,0,1-.146.755" transform="translate(-305.803 -579.001)" fill="#a18a66"/>
    <path id="Path_12" data-name="Path 12" d="M381.4,638.036a1.59,1.59,0,0,0,.318-.579,2.211,2.211,0,0,0,.1-.643,1.8,1.8,0,0,0-.146-.743,1.545,1.545,0,0,0-.407-.549,1.766,1.766,0,0,0-.635-.34,2.765,2.765,0,0,0-.822-.116h-1.531V640.5h.874v-1.89h.784c.03,0,.058,0,.087,0l1.227,1.893h1.008l-1.324-2.106a1.559,1.559,0,0,0,.468-.362m-2.252-2.133h.806a1.014,1.014,0,0,1,.471.1.844.844,0,0,1,.3.243.928.928,0,0,1,.153.306,1.107,1.107,0,0,1,.045.295,1.052,1.052,0,0,1-.048.3.957.957,0,0,1-.157.3.817.817,0,0,1-.3.235,1.113,1.113,0,0,1-.485.094h-.777Z" transform="translate(-331.645 -579.166)" fill="#a18a66"/>
    <path id="Path_13" data-name="Path 13" d="M407.835,638.19h2.435v-.836h-2.435V635.9h2.734v-.836h-3.608v5.437h3.712v-.836h-2.838Z" transform="translate(-352.744 -579.167)" fill="#a18a66"/>
    <path id="Path_14" data-name="Path 14" d="M436.012,638.641l-1.436-3.573h-1.038l2.435,5.692,2.435-5.692h-1.023Z" transform="translate(-372.295 -579.166)" fill="#a18a66"/>
    <path id="Path_15" data-name="Path 15" d="M466.434,638.19h2.435v-.836h-2.435V635.9h2.734v-.836H465.56v5.437h3.712v-.836h-2.838Z" transform="translate(-395.848 -579.167)" fill="#a18a66"/>
    <path id="Path_16" data-name="Path 16" d="M497.031,638.036a1.589,1.589,0,0,0,.318-.579,2.213,2.213,0,0,0,.1-.643,1.8,1.8,0,0,0-.146-.743,1.545,1.545,0,0,0-.407-.549,1.767,1.767,0,0,0-.635-.34,2.765,2.765,0,0,0-.822-.116h-1.531V640.5h.874v-1.89h.784c.03,0,.057,0,.087,0l1.227,1.893h1.008l-1.324-2.106a1.559,1.559,0,0,0,.468-.362m-2.252-2.133h.807a1.014,1.014,0,0,1,.471.1.845.845,0,0,1,.3.243.928.928,0,0,1,.153.306,1.1,1.1,0,0,1,.045.295,1.053,1.053,0,0,1-.048.3.958.958,0,0,1-.157.3.817.817,0,0,1-.3.235,1.113,1.113,0,0,1-.485.094h-.777Z" transform="translate(-416.697 -579.166)" fill="#a18a66"/>
    <path id="Path_17" data-name="Path 17" d="M539.986,635.9h1.367v4.6h.867v-4.6h1.4v-.837h-3.637Z" transform="translate(-450.594 -579.166)" fill="#a18a66"/>
    <path id="Path_18" data-name="Path 18" d="M570.376,635.672a2.84,2.84,0,0,0-.889-.609,2.734,2.734,0,0,0-2.151,0,2.807,2.807,0,0,0-.885.609,2.911,2.911,0,0,0-.6.889,2.658,2.658,0,0,0-.216,1.068,2.722,2.722,0,0,0,.216,1.087,2.765,2.765,0,0,0,.6.882,2.8,2.8,0,0,0,.882.59,2.832,2.832,0,0,0,2.155,0,2.791,2.791,0,0,0,.889-.594,2.835,2.835,0,0,0,.605-.885,2.659,2.659,0,0,0,.22-1.079,2.614,2.614,0,0,0-.22-1.068,2.938,2.938,0,0,0-.605-.889m-.216,2.712a1.983,1.983,0,0,1-.4.616,1.839,1.839,0,0,1-.594.414,1.788,1.788,0,0,1-.729.15,1.846,1.846,0,0,1-.746-.15,1.917,1.917,0,0,1-1.012-1.03,1.949,1.949,0,0,1-.146-.755,2.027,2.027,0,0,1,.142-.758,1.926,1.926,0,0,1,.4-.623,1.88,1.88,0,0,1,2.08-.419,1.8,1.8,0,0,1,.6.419,2.067,2.067,0,0,1,.4.62,1.923,1.923,0,0,1,.15.762,1.959,1.959,0,0,1-.146.755" transform="translate(-469.469 -579.001)" fill="#a18a66"/>
    <path id="Path_19" data-name="Path 19" d="M602.275,638.444H603.3v.9a1.338,1.338,0,0,1-.411.142,2.672,2.672,0,0,1-.493.045,2.372,2.372,0,0,1-.807-.131,1.762,1.762,0,0,1-.627-.377,1.724,1.724,0,0,1-.407-.59,1.934,1.934,0,0,1-.146-.762,2.3,2.3,0,0,1,.138-.825,1.684,1.684,0,0,1,.4-.617,1.711,1.711,0,0,1,.631-.384,2.513,2.513,0,0,1,.84-.131,2.2,2.2,0,0,1,.418.045,3.172,3.172,0,0,1,.456.123,2.149,2.149,0,0,1,.366.161l.284-.807a2.974,2.974,0,0,0-.721-.284,3.541,3.541,0,0,0-.915-.112,3.046,3.046,0,0,0-1.065.187,2.582,2.582,0,0,0-.892.557,2.623,2.623,0,0,0-.612.911,3.25,3.25,0,0,0-.224,1.251,2.714,2.714,0,0,0,.2,1.053,2.432,2.432,0,0,0,.575.84,2.683,2.683,0,0,0,.9.557,3.289,3.289,0,0,0,1.184.2,2.874,2.874,0,0,0,.508-.049,3.972,3.972,0,0,0,.523-.131,3.8,3.8,0,0,0,.46-.179,1.1,1.1,0,0,0,.31-.2v-2.234h-1.9Z" transform="translate(-494.383 -579.002)" fill="#a18a66"/>
    <path id="Path_20" data-name="Path 20" d="M632.744,638.19h2.435v-.836h-2.435V635.9h2.734v-.836H631.87v5.437h3.712v-.836h-2.838Z" transform="translate(-518.182 -579.167)" fill="#a18a66"/>
    <path id="Path_21" data-name="Path 21" d="M658.755,635.9h1.367v4.6h.866v-4.6h1.4v-.837h-3.638Z" transform="translate(-537.957 -579.166)" fill="#a18a66"/>
    <path id="Path_22" data-name="Path 22" d="M690,637.361h-2.674v-2.293h-.874v5.437h.874V638.19H690v2.315h.867v-5.437H690Z" transform="translate(-558.336 -579.166)" fill="#a18a66"/>
    <path id="Path_23" data-name="Path 23" d="M719.434,638.19h2.435v-.836h-2.435V635.9h2.734v-.836H718.56v5.437h3.712v-.836h-2.839Z" transform="translate(-581.949 -579.167)" fill="#a18a66"/>
    <path id="Path_24" data-name="Path 24" d="M750.886,640.5l-1.323-2.106a1.562,1.562,0,0,0,.468-.362,1.589,1.589,0,0,0,.317-.579,2.214,2.214,0,0,0,.1-.643,1.8,1.8,0,0,0-.146-.743,1.546,1.546,0,0,0-.407-.549,1.767,1.767,0,0,0-.635-.34,2.764,2.764,0,0,0-.822-.116h-1.531V640.5h.874v-1.89h.784c.03,0,.057,0,.087,0l1.228,1.893Zm-3.107-4.6h.807a1.015,1.015,0,0,1,.471.1.844.844,0,0,1,.3.243.933.933,0,0,1,.153.306,1.093,1.093,0,0,1,.045.295,1.044,1.044,0,0,1-.048.3.963.963,0,0,1-.157.3.817.817,0,0,1-.3.235,1.113,1.113,0,0,1-.485.094h-.777Z" transform="translate(-603.002 -579.166)" fill="#a18a66"/>
  </g>
</svg>
