<svg id="Contact_Us" data-name="Contact Us" xmlns="http://www.w3.org/2000/svg" width="26" height="25.125" viewBox="0 0 26 25.125">
  <rect id="Rectangle_7415" data-name="Rectangle 7415" width="26" height="25" fill="none"/>
  <g id="Group_9900" data-name="Group 9900" transform="translate(-105.75 -95)">
    <path id="Path_103" data-name="Path 103" d="M20.791,9.32A8.322,8.322,0,0,0,12.75.75,8.322,8.322,0,0,0,4.709,9.32" transform="translate(106 95.25)" fill="none" stroke="#192537" stroke-linecap="round" stroke-width="1.5"/>
    <path id="Path_104" data-name="Path 104" d="M3.94,17.612a8.464,8.464,0,0,0,6.452,5.175" transform="translate(106 95.005)" fill="none" stroke="#192537" stroke-linecap="round" stroke-width="1.5"/>
    <path id="Path_105" data-name="Path 105" d="M4.709,9.2v8.41h-1.5A2.787,2.787,0,0,1,.75,14.6V12.2a2.777,2.777,0,0,1,2.462-3Z" transform="translate(106 95.114)" fill="none" stroke="#192537" stroke-linecap="round" stroke-linejoin="round" stroke-width="1.5"/>
    <path id="Path_106" data-name="Path 106" d="M21.043,9.2v8.41h1.5A2.787,2.787,0,0,0,25,14.6V12.2a2.777,2.777,0,0,0-2.462-3Z" transform="translate(105.748 95.114)" fill="none" stroke="#192537" stroke-linecap="round" stroke-linejoin="round" stroke-width="1.5"/>
    <path id="Path_107" data-name="Path 107" d="M14.013,24.37h-2.2a1.418,1.418,0,1,1,0-2.836h2.2a1.418,1.418,0,1,1,0,2.836Z" transform="translate(105.874 95.005)" fill="none" stroke="#192537" stroke-linecap="round" stroke-width="1.5"/>
  </g>
</svg>
