<svg xmlns="http://www.w3.org/2000/svg" width="26" height="25.75" viewBox="0 0 26 25.75">
  <g id="Profile" transform="translate(0 0.75)">
    <g id="Group_15771" data-name="Group 15771" transform="translate(2)">
      <g id="Group_9" data-name="Group 9" transform="translate(0 13.661)">
        <path id="Path_7" data-name="Path 7" d="M268.538,663.714l-15.981-.044a3.078,3.078,0,0,1-2.665-4.163,12.585,12.585,0,0,1,3.573-5.45,2.639,2.639,0,0,1,3.309-.188,6.49,6.49,0,0,0,7.547,0,2.641,2.641,0,0,1,3.311.189,12.594,12.594,0,0,1,3.589,5.5A3.077,3.077,0,0,1,268.538,663.714Z" transform="translate(-249.718 -653.375)" fill="none" stroke="#192537" stroke-linecap="round" stroke-linejoin="round" stroke-width="1.5"/>
      </g>
      <ellipse id="Ellipse_5" data-name="Ellipse 5" cx="5.968" cy="5.968" rx="5.968" ry="5.968" transform="translate(4.861)" fill="none" stroke="#192537" stroke-linecap="round" stroke-linejoin="round" stroke-width="1.5"/>
    </g>
    <rect id="Rectangle_7418" data-name="Rectangle 7418" width="26" height="25" fill="none"/>
  </g>
</svg>
